<svg width="9" height="13" viewBox="0 0 9 13" fill="none" xmlns="http://www.w3.org/2000/svg">
<path fill-rule="evenodd" clip-rule="evenodd" d="M4.5 13C4.5 13 4.34547 12.7917 4.09368 12.4357C2.98673 10.8706 0 6.45152 0 4.33333C0 1.90667 1.98 0 4.5 0C7.02 0 9 1.90667 9 4.33333C9 6.45152 6.01327 10.8706 4.90632 12.4357C4.65453 12.7917 4.5 13 4.5 13ZM4.5 11.8641C4.54778 11.7958 4.59806 11.7236 4.65056 11.6478C5.06778 11.0451 5.62302 10.2163 6.17723 9.30906C6.73273 8.39968 7.28017 7.4229 7.68671 6.52249C8.10327 5.59989 8.33333 4.83906 8.33333 4.33333C8.33333 2.27324 6.65964 0.65 4.5 0.65C2.34036 0.65 0.666667 2.27324 0.666667 4.33333C0.666667 4.83906 0.89673 5.59989 1.31329 6.52249C1.71983 7.4229 2.26727 8.39968 2.82277 9.30906C3.37698 10.2163 3.93222 11.0451 4.34944 11.6478C4.40194 11.7236 4.45222 11.7958 4.5 11.8641Z" fill="#808080"/>
<path fill-rule="evenodd" clip-rule="evenodd" d="M2.69943 6.14306C2.23674 5.69194 2 5.07146 2 4.3875C2 3.70354 2.23674 3.08306 2.69943 2.63194C3.16212 2.18082 3.7985 1.95 4.5 1.95C5.2015 1.95 5.83789 2.18082 6.30057 2.63194C6.76326 3.08306 7 3.70354 7 4.3875C7 5.07146 6.76326 5.69194 6.30057 6.14306C5.83789 6.59418 5.2015 6.825 4.5 6.825C3.7985 6.825 3.16212 6.59418 2.69943 6.14306ZM4.5 6.175C3.4 6.175 2.66667 5.46 2.66667 4.3875C2.66667 3.315 3.4 2.6 4.5 2.6C5.6 2.6 6.33333 3.315 6.33333 4.3875C6.33333 5.46 5.6 6.175 4.5 6.175Z" fill="#808080"/>
</svg>
