<svg width="8" height="13" viewBox="0 0 8 13" fill="none" xmlns="http://www.w3.org/2000/svg">
<path fill-rule="evenodd" clip-rule="evenodd" d="M7.8 10.66L0 10.66L4.37114e-08 10.14L7.8 10.14V10.66Z" fill="#808080"/>
<path fill-rule="evenodd" clip-rule="evenodd" d="M5.2 2.08H2.6V1.56H5.2V2.08Z" fill="#808080"/>
<path fill-rule="evenodd" clip-rule="evenodd" d="M4.68 11.96H3.12V11.44H4.68V11.96Z" fill="#808080"/>
<path fill-rule="evenodd" clip-rule="evenodd" d="M0.52 0.52V12.48H7.28V0.52H0.52ZM0.26 0C0.116406 0 4.37114e-08 0.116406 4.37114e-08 0.26V12.74C4.37114e-08 12.8836 0.116406 13 0.26 13H7.54C7.68359 13 7.8 12.8836 7.8 12.74V0.26C7.8 0.116406 7.68359 0 7.54 0H0.26Z" fill="#808080"/>
</svg>
